<svg width="1024" height="1024" viewBox="0 0 1024 1024" fill="none" xmlns="http://www.w3.org/2000/svg">
<path fill-rule="evenodd" clip-rule="evenodd" d="M8 0C3.58 0 0 3.58 0 8C0 11.54 2.29 14.53 5.47 15.59C5.87 15.66 6.02 15.42 6.02 15.21C6.02 15.02 6.01 14.39 6.01 13.72C4 14.09 3.48 13.23 3.32 12.78C3.23 12.55 2.84 11.84 2.5 11.65C2.22 11.5 1.82 11.13 2.49 11.12C3.12 11.11 3.57 11.7 3.72 11.94C4.44 13.15 5.59 12.81 6.05 12.6C6.12 12.08 6.33 11.73 6.56 11.53C4.78 11.33 2.92 10.64 2.92 7.58C2.92 6.71 3.23 5.99 3.74 5.43C3.66 5.23 3.38 4.41 3.82 3.31C3.82 3.31 4.49 3.1 6.02 4.13C6.66 3.95 7.34 3.86 8.02 3.86C8.7 3.86 9.38 3.95 10.02 4.13C11.55 3.09 12.22 3.31 12.22 3.31C12.66 4.41 12.38 5.23 12.3 5.43C12.81 5.99 13.12 6.7 13.12 7.58C13.12 10.65 11.25 11.33 9.47 11.53C9.76 11.78 10.01 12.26 10.01 13.01C10.01 14.08 10 14.94 10 15.21C10 15.42 10.15 15.67 10.55 15.59C13.71 14.53 16 11.53 16 8C16 3.58 12.42 0 8 0Z" transform="scale(64)" fill="#1B1F23"/>
</svg>
<?xml version="1.0" encoding="UTF-8" standalone="no"?>
<svg
   width="96"
   height="96"
   viewBox="0 0 96 96"
   fill="none"
   version="1.1"
   id="svg4"
   sodipodi:docname="github.svg"
   inkscape:version="1.1.2 (0a00cf5339, 2022-02-04)"
   xmlns:inkscape="http://www.inkscape.org/namespaces/inkscape"
   xmlns:sodipodi="http://sodipodi.sourceforge.net/DTD/sodipodi-0.dtd"
   xmlns="http://www.w3.org/2000/svg"
   xmlns:svg="http://www.w3.org/2000/svg">
  <defs
     id="defs8" />
  <sodipodi:namedview
     id="namedview6"
     pagecolor="#ffffff"
     bordercolor="#666666"
     borderopacity="1.0"
     inkscape:pageshadow="2"
     inkscape:pageopacity="0.0"
     inkscape:pagecheckerboard="0"
     showgrid="false"
     showguides="false"
     inkscape:zoom="4.1015625"
     inkscape:cx="43.154286"
     inkscape:cy="52.906667"
     inkscape:window-width="1366"
     inkscape:window-height="698"
     inkscape:window-x="0"
     inkscape:window-y="33"
     inkscape:window-maximized="1"
     inkscape:current-layer="svg4" />
  <path
     fill-rule="evenodd"
     clip-rule="evenodd"
     d="m 48,1.1841527 c -26.52,0 -48,21.4800003 -48,48.0000003 0,21.24 13.74,39.18 32.82,45.54 2.4,0.42 3.3,-1.02 3.3,-2.28 0,-1.14 -0.06,-4.92 -0.06,-8.94 -12.06,2.22 -15.18,-2.94 -16.14,-5.64 -0.54,-1.38 -2.88,-5.64 -4.92,-6.78 -1.68,-0.9 -4.08,-3.12 -0.06,-3.18 3.78,-0.06 6.48,3.48 7.38,4.92 4.32,7.26 11.22,5.22 13.98,3.96 0.42,-3.12 1.68,-5.22 3.06,-6.42 -10.68,-1.2 -21.84,-5.34 -21.84,-23.7 0,-5.22 1.86,-9.54 4.92,-12.9 -0.48,-1.2 -2.16,-6.12 0.48,-12.72 0,0 4.02,-1.26 13.2,4.92 3.84,-1.08 7.92,-1.62 12,-1.62 4.08,0 8.16,0.54 12,1.62 9.18,-6.24 13.2,-4.92 13.2,-4.92 2.64,6.6 0.96,11.52 0.48,12.72 3.06,3.36 4.92,7.62 4.92,12.9 0,18.42 -11.22,22.5 -21.9,23.7 1.74,1.5 3.24,4.38 3.24,8.88 0,6.42 -0.06,11.58 -0.06,13.2 0,1.26 0.9,2.76 3.3,2.28 18.96,-6.36 32.7,-24.36 32.7,-45.54 0,-26.52 -21.48,-48.0000003 -48,-48.0000003 z"
     fill="#1b1f23"
     id="path2"
     style="stroke-width:6" />
</svg>
